<svg fill="#7600ff" width="256px" height="256px" viewBox="-6.4 -6.4 76.80 76.80"
    enable-background="new 0 0 64 64" version="1.1" xml:space="preserve"
    xmlns="http://www.w3.org/2000/svg" xmlns:xlink="http://www.w3.org/1999/xlink" stroke="#7600ff"
    stroke-width="1.6"><g id="SVGRepo_bgCarrier" stroke-width="0"></g><g id="SVGRepo_tracerCarrier" stroke-linecap="round" stroke-linejoin="round"></g><g id="SVGRepo_iconCarrier"> <g id="grid"></g> <g id="Layer_2"></g> <g id="Layer_3"></g> <g id="Layer_4"></g> <g id="Layer_5"></g> <g id="Layer_6"></g> <g id="Layer_7"></g> <g id="Layer_8"></g> <g id="Layer_9"></g> <g id="Layer_10"></g> <g id="Layer_37"> <g> <g> <path d="M32,60.421C16.329,60.421,3.579,47.671,3.579,32S16.329,3.579,32,3.579S60.421,16.329,60.421,32S47.671,60.421,32,60.421 z M32,5.579C17.432,5.579,5.579,17.432,5.579,32S17.432,58.421,32,58.421S58.421,46.568,58.421,32S46.568,5.579,32,5.579z"></path> </g> <g> <rect height="32.663" transform="matrix(0.3467 0.938 -0.938 0.3467 37.388 -21.3572)" width="2" x="33.025" y="-0.171"></rect> </g> <g> <rect height="2" transform="matrix(0.7495 0.662 -0.662 0.7495 29.5966 -24.1816)" width="33.26" x="30.119" y="26.015"></rect> </g> <g> <rect height="29.626" transform="matrix(0.9851 0.1718 -0.1718 0.9851 8.0725 -7.1338)" width="2" x="44.242" y="28.249"></rect> </g> <g> <rect height="29.127" transform="matrix(0.4601 0.8879 -0.8879 0.4601 61.5705 -1.4139)" width="2" x="30.948" y="35.354"></rect> </g> <g> <rect height="2" transform="matrix(0.8326 0.5539 -0.5539 0.8326 26.3396 -2.4673)" width="30.938" x="1.782" y="41.336"></rect> </g> <g> <rect height="35.81" transform="matrix(0.9948 0.1016 -0.1016 0.9948 2.5527 -1.8121)" width="2" x="18.069" y="6.253"></rect> </g> </g> </g> <g id="Layer_11"></g> <g id="Layer_12"></g> <g id="Layer_13"></g> <g id="Layer_14"></g> <g id="Layer_16"></g> <g id="Layer_17"></g> <g id="Layer_18"></g> <g id="Layer_19"></g> <g id="Layer_20"></g> <g id="Layer_21"></g> <g id="Layer_22"></g> <g id="Layer_23"></g> <g id="Layer_24"></g> <g id="Layer_25"></g> </g></svg>